Coordinates
version=1
nRows=6
nColumns=36
inDegrees=yes

Units are S.I. units (second, meters, Newtons, ...)
If the header above contains a line with 'inDegrees', this indicates whether rotational values are in degrees (yes) or radians (no).

endheader
time	pelvis_tilt	pelvis_list	pelvis_rotation	pelvis_tx	pelvis_ty	pelvis_tz	hip_flexion_r	hip_adduction_r	hip_rotation_r	knee_angle_r	knee_angle_r_beta	ankle_angle_r	subtalar_angle_r	mtp_angle_r	hip_flexion_l	hip_adduction_l	hip_rotation_l	knee_angle_l	knee_angle_l_beta	ankle_angle_l	subtalar_angle_l	mtp_angle_l	lumbar_extension	lumbar_bending	lumbar_rotation	arm_flex_r	arm_add_r	arm_rot_r	elbow_flex_r	pro_sup_r	arm_flex_l	arm_add_l	arm_rot_l	elbow_flex_l	pro_sup_l
      3.50000000	      0.66641797	     -0.10391626	      1.72612677	      0.68165783	      0.70712565	      0.08878896	     44.96905576	    -10.22744586	     -4.89541002	     80.71728175	      1.40878233	     35.90824169	    -12.41518818	     -7.49999987	     51.88331006	    -12.15058311	     -4.81913571	     79.47502192	      1.38710081	     21.92100313	    -21.55450125	     -7.49999987	    -45.68444095	      0.07536391	      2.50212914	     45.55989083	      8.71426695	     47.95248214	     48.33391778	     67.43478650	     61.43192240	     10.61930910	     69.58673810	     70.16456304	     47.91330069
      3.51666670	      0.51228975	     -0.22772229	      1.70780182	      0.68042770	      0.73131776	      0.08491527	     42.56269632	     -9.99688830	     -5.66718100	     75.43783078	      1.31663853	     32.73594526	    -13.17888035	     -7.49999987	     49.16009233	    -11.46371354	     -5.42309001	     74.44186964	      1.29925573	     19.96547098	    -21.58910806	     -7.49999987	    -44.94457590	      0.33258781	      2.97105270	     45.21252804	      8.38118007	     50.47884744	     49.69046093	     67.69898454	     61.99298940	     12.07183935	     72.30786045	     73.38397771	     48.03194107
      3.53333330	      0.44141372	     -0.36557171	      1.82678217	      0.68917336	      0.75126362	      0.08332598	     38.96030689	     -9.84964424	     -6.66293508	     69.29641945	      1.20945068	     29.94315773	    -12.91582548	     -7.49999987	     45.75887047	    -10.95447114	     -5.92771727	     68.99585181	      1.20420478	     18.11670915	    -21.04317918	     -7.49999987	    -43.72400596	      0.73139270	      2.67104510	     44.15613774	      7.72477226	     55.29650310	     51.39269194	     68.18963746	     61.45983037	     12.58945192	     74.78260534	     77.13276753	     47.77888099
      3.55000000	      0.47548904	     -0.60780968	      1.80584514	      0.70659940	      0.76384525	      0.08066492	     34.83264179	     -9.74304656	     -7.80973810	     63.60010398	      1.11003122	     27.13053821	    -12.55852227	     -7.49999987	     41.85322409	    -10.82406642	     -6.63411957	     63.99814252	      1.11697830	     16.80986583	    -20.22799634	     -7.49999987	    -41.43714724	      1.36144096	      2.10108850	     41.20818533	      6.73949356	     59.43571838	     53.97325577	     68.81544768	     58.34701745	     12.48558925	     76.65561956	     81.77599267	     47.94510450
      3.56666670	      0.17630834	     -0.67953210	      1.63804832	      0.71326711	      0.77726864	      0.07948019	     31.18041591	     -9.54707971	     -8.76405339	     57.98989892	      1.01211467	     25.05155122	    -11.89046108	     -7.49999987	     38.37240572	    -10.43344853	     -7.41682117	     58.95902581	      1.02902912	     15.98497711	    -19.38403601	     -7.49999987	    -38.47347638	      1.76982099	      1.26081526	     37.95344584	      5.42294905	     63.87053769	     57.17803936	     69.68464767	     55.30050909	     12.06939491	     78.39029054	     86.45105029	     48.38817754
      3.58333330	     -0.79975040	     -0.75524652	      1.32288343	      0.71316384	      0.78350529	      0.08297023	     29.43540270	     -9.09609345	     -9.41376183	     53.57436554	      0.93504907	     23.43292395	    -11.45309935	     -7.49999987	     36.30844673	    -10.27426639	     -8.13346488	     54.59481505	      0.95285928	     15.00047859	    -18.89313450	     -7.49999987	    -34.58382340	      1.83942038	      0.45730290	     35.69288038	      4.24408125	     68.30037297	     61.21360143	     70.54879584	     53.33074273	     11.46750704	     79.25643259	     90.95844025	     48.92009506
